<?xml version="1.0" encoding="utf-8"?>
<!-- Generator: Adobe Illustrator 21.1.0, SVG Export Plug-In . SVG Version: 6.00 Build 0)  -->
<svg version="1.1" id="Layer_1" xmlns="http://www.w3.org/2000/svg" xmlns:xlink="http://www.w3.org/1999/xlink" x="0px" y="0px"
	 viewBox="0 0 188.6 75.3" style="enable-background:new 0 0 188.6 75.3;" xml:space="preserve">
<style type="text/css">
	.st0{fill:#E41B23;}
	.st1{fill:#FFFFFF;}
</style>
<g id="sioux_x5F_logo_x5F_fullcolor">
	<g>
		<g>
			<path d="M6.9,60.5H4v-1.8h7.9v1.8H9v7.8H6.9V60.5z"/>
			<path d="M14.2,58.7h7.2v1.8h-5.1v2.1H21v1.6h-4.7v2.4h5.2v1.8h-7.3V58.7z"/>
			<path d="M30.4,61.9c-0.1-1-1.1-1.7-2.1-1.7c-1.9,0-2.6,1.6-2.6,3.3c0,1.6,0.7,3.2,2.6,3.2c1.3,0,2-0.9,2.2-2.2h2
				c-0.2,2.4-1.9,3.9-4.2,3.9c-3,0-4.7-2.2-4.7-5c0-2.9,1.8-5.1,4.7-5.1c2.1,0,3.9,1.2,4.1,3.5H30.4z"/>
			<path d="M34.9,58.7H37v3.7h3.9v-3.7H43v9.6h-2.1v-4.1H37v4.1h-2.1V58.7z"/>
			<path d="M46.2,58.7h2.1l4,6.4h0v-6.4h2v9.6h-2.1l-4-6.4h0v6.4h-2V58.7z"/>
			<path d="M61.4,58.5c3,0,4.7,2.2,4.7,5.1c0,2.8-1.7,5-4.7,5c-3,0-4.7-2.2-4.7-5C56.7,60.7,58.4,58.5,61.4,58.5z M61.4,66.7
				c1.9,0,2.6-1.6,2.6-3.2c0-1.7-0.7-3.3-2.6-3.3s-2.6,1.6-2.6,3.3C58.8,65.1,59.5,66.7,61.4,66.7z"/>
			<path d="M68.6,58.7h2.1v7.8h4.7v1.8h-6.8V58.7z"/>
			<path d="M81.5,58.5c3,0,4.7,2.2,4.7,5.1c0,2.8-1.7,5-4.7,5c-3,0-4.7-2.2-4.7-5C76.7,60.7,78.5,58.5,81.5,58.5z M81.5,66.7
				c1.9,0,2.6-1.6,2.6-3.2c0-1.7-0.7-3.3-2.6-3.3c-1.9,0-2.6,1.6-2.6,3.3C78.9,65.1,79.6,66.7,81.5,66.7z"/>
			<path d="M95.4,67.2c-0.7,1-1.7,1.3-2.6,1.3c-3,0-4.7-2.2-4.7-5c0-2.9,1.7-5.1,4.7-5.1c2,0,3.8,1.2,4,3.4h-2c-0.2-1.1-1-1.6-2-1.6
				c-1.9,0-2.6,1.6-2.6,3.3c0,1.6,0.7,3.2,2.6,3.2c1.4,0,2.2-0.7,2.3-2.1h-2.1v-1.6h4v5.2h-1.3L95.4,67.2z"/>
			<path d="M99.6,58.7h2.1v9.6h-2.1V58.7z"/>
			<path d="M104.4,58.7h7.2v1.8h-5.1v2.1h4.6v1.6h-4.7v2.4h5.2v1.8h-7.3V58.7z"/>
			<path d="M115.6,65.1c0,1.3,1,1.8,2.1,1.8c0.7,0,1.9-0.2,1.9-1.2c0-1-1.4-1.2-2.9-1.6c-1.4-0.4-2.9-0.9-2.9-2.7
				c0-2,1.9-2.9,3.6-2.9c2,0,3.9,0.9,3.9,3.1h-2c-0.1-1.2-0.9-1.5-1.9-1.5c-0.7,0-1.5,0.3-1.5,1.1c0,0.7,0.5,0.8,2.9,1.5
				c0.7,0.2,2.9,0.6,2.9,2.8c0,1.8-1.4,3.1-4,3.1c-2.1,0-4.1-1.1-4.1-3.4H115.6z"/>
		</g>
	</g>
	<g>
		<path class="st0" d="M166.5,57.9c0.6,0.2,1.7,0.5,2.2-0.2c1.4-2.8-2.1-4.3-3.3-6.2c-0.6-1-1.4-1.9-1.3-3.1c0.4-1.6,2-2.4,3.3-2.9
			c2.8-0.8,2.8,2.3,4.4,3.7c1.4,0.6,2.1,2.2,3.9,2.1c0.9,0.1,1.6-0.4,1.9-1.1c0.5-2.2-1.2-3.2-2.7-4.3c-1.9-1.4-4.1-2.4-5.1-4.6
			c0.5-0.6,0.1-1.7,1.1-2c2.1-0.4,3.5,1.3,5.7,0.8c1.9-0.1,3.2-1.2,3.9-2.9c-0.7-3.1-3.6-0.6-5.4-2.1c-1.2-1.2-3.4-1.4-3.7-3.3
			c1.1-1.2,3-1.2,3.8-2.9c0.2-0.9,0.1-2.1-0.5-2.7c-1.7-0.5-2.8,0.5-4.4,0.5c-0.4,0.5-1.2,0.7-2,0.7c-0.5-0.5-1.4-0.9-1.5-1.7
			c1.2-1.7,2.7-2.4,3.5-4.3c0.2-1.3,0.6-3-0.7-3.7c-4.3-0.5-3.8,4.7-7.7,5c-0.6-0.2-1-0.7-1.3-1.2c-0.6-2.6,0.4-5-0.1-7.5
			c-0.3-0.6-1-1.3-1.7-1.3c-0.5,0.2-1,0.4-1.2,0.9c-0.8,2.2,0.6,5.2-1.2,7.1c-0.2,0.1-0.3,0.2-0.5,0.3c-0.6,0.3-1.2,0.4-1.8,0.2
			c-0.6-0.4-1.3-0.5-1.6-1.3c-0.2-2.4-2-4.1-3.1-6.1c-0.4-0.5-0.9,0-1.2,0.3c-1.3,2.6-0.4,5.9,0.3,8.5c-0.1,0.2-0.1,0.7-0.5,0.5
			c-2.4-1.7-4.6-3.4-7-4.9l-0.1-0.5c1.9-3.4,4.9-6.5,8.2-8.1c2.1-0.5,5,0.5,6.8-0.4c0.6-0.2,1.1-0.7,1.4-1.4
			c0.3-0.7,0.2-1.7-0.3-2.1c-0.4-0.2-0.8-0.3-1.2-0.4c-1.8-0.5-4-0.2-5.5,0.2c-5.6,1.1-9.9,5.4-13.6,9.6c-2.6,3.3-4.8,6.9-6.4,10.6
			c-1.8,4.9-2.5,11-1.2,16.3c0.6,2.6,1.8,4.8,2.3,7.5c1.1,1.7,0.8,4.5,3.3,4.9c0.7,0.4,1.2-0.2,1.8-0.5c-0.3-3.1-1.7-5.9-2.2-9
			c-0.1-0.9-1.2-1.9-0.3-2.6c4.4,1.7,9.2,0.3,13.9,0.2c0.8,0.2,0.9,1.1,1.3,1.7c0,4.3-4.6,5.1-7.1,7.7c-1.1,2.6-3.4,4-5.1,5.9
			l-0.1,1.1c0.6,0.6,1.2,1.5,2.1,1.1c3.5-2,5-6.3,8.6-8.5c0.5-0.4,0.7-1.3,1.3-1.4c0.2,0.1,0.2,0.3,0.2,0.5
			c-1.7,1.9-2.7,4.1-3.8,6.3c-0.7,2-2.6,3.3-2.5,5.5c0.8,0.5,2,1.3,3.2,0.7c1-0.7,0.6-2.1,1.1-3.1c1.9-3.6,2.9-7.7,5.3-11.1
			c0.7-0.4,1.2-0.8,2-0.4c0.7,0.5,1.3,1.2,1.3,2.1c-0.4,3.2-1.3,6.3-2.1,9.3c-0.1,1.1-1.1,2.7,0.2,3.5c0.6,0.3,1.3,0.3,1.9,0
			c0.1-0.2,0.2-0.3,0.2-0.5c1.3-2.8,1.5-6,2.6-8.8c0.4-1.3-1-3.6,0.9-4.2c0.9-0.3,1.7,0.1,2.3,0.7C164,52.7,164.1,56.1,166.5,57.9
			 M146.2,29c0,0.7-0.7,0.8-1.1,1.1c-3.1,0.3-6.3-1.5-9.2,0.1c-0.8,0.5-0.8,1.5-0.8,2.3c1.8,3.1,6.1,3.7,9.4,3.3
			c0.4,0,0.9,0.3,1,0.7c0,0.7,0.4,1.4-0.4,1.9c-1.2,0.6-2.4,0.4-3.8,0.5c-2.9,0.2-6.4,1.2-8.2-1.6c-1.4-5,0.5-10.1,3.7-13.8
			c0.5-0.8,1.1-1.9,2.2-2.3c1.9,2.3,3.9,4,6.3,5.8C146,27.4,146.3,28.2,146.2,29 M156.2,45.7c-0.2-0.1-0.3-0.2-0.5-0.3
			c-2.7-1.3-4.5-4.3-6.2-6.8c-1.7-2.6-1.3-6.1,0.4-8.5c1.3-2,3.5-3.2,5.8-3.7c0.6-0.1,1.3-0.2,1.9-0.2c4.6-0.5,7.5,2.8,10,5.7
			c1.1,2.4,1.2,6-0.1,8.2c-0.8,1.1-1.8,2.2-2.9,2.9C162.4,45.4,159.4,46.4,156.2,45.7"/>
		<path class="st0" d="M186.3,36.1c-0.1-2.6-1.6-4.6-2.3-6.9c-0.8-1.1-1.4-2.6-2.2-3.8c-0.5-0.5-1-0.3-1.6-0.1v3
			c0.3,1,0.5,2,0.8,2.9c1,1.8,1.8,3.5,2.2,5.6c1,5.6-1.8,9.8-4.1,14.1c-2.5,5.6-7.7,10.3-11.6,14.2c-0.8,0.5-2.1,0.7-2.1,1.9
			c0.1,0.8,0.4,1.1,1.1,1.5c0.9,0.1,1.8-0.2,2.6-0.5c1.5-1.1,3.7-1.1,4.5-3.1c4.1-4,7.3-9.3,9.8-14.4
			C186.3,46.3,187.2,41.3,186.3,36.1"/>
		<path class="st0" d="M167.8,14.7c1.7,0.1,4.4,0.9,5.4-0.6c0.3-0.9-0.1-1.8-0.6-2.4c-2-0.6-3.3-2.8-5.8-1.9
			c-0.6,0.7-1.5,1.5-1.3,2.8C165.7,13.6,166.7,14.4,167.8,14.7"/>
	</g>
	<rect x="4" y="7.7" width="117.6" height="44.4"/>
	<g>
		<path class="st1" d="M37.1,13.7h4.6V46h-4.6V13.7z"/>
		<path class="st1" d="M50,21.4c0-5.3,4-7.9,7.8-7.9c3.8,0,7.8,2.6,7.8,7.9v17.1c0,5.3-4,7.9-7.8,7.9c-3.8,0-7.8-2.6-7.8-7.9V21.4z
			 M54.7,38.4c0,2.2,1.5,3.3,3.1,3.3s3.1-1,3.1-3.3V21.3c0-2.2-1.5-3.3-3.1-3.3s-3.1,1-3.1,3.3V38.4z"/>
		<path class="st1" d="M89.2,38.8c0,4.2-3.4,7.5-7.5,7.5c-4.1,0-7.5-3.3-7.5-7.5v-25h4.6v24.6c0,2.3,1.2,3.4,2.9,3.4
			c1.6,0,2.9-1.1,2.9-3.4V13.7h4.6V38.8z"/>
		<path class="st1" d="M102.1,29.1l-6-15.4h4.9l3.5,9.6l3.5-9.6h4.9l-6.2,15.4l6.7,16.9h-4.9l-4-10.9l-4,10.9h-4.9L102.1,29.1z"/>
		<path class="st1" d="M24,28l-3.5-1.4c-2.4-1-2.6-1.8-2.6-4.3c0-2.1,0.6-4.2,3.1-4.2c2.4,0,3.3,1.8,3.3,3.9v1l4.6-0.8v-1.5
			c0-3.6-3.1-7.3-7.7-7.3c-5.3,0-7.9,3.9-7.9,8.8c0,4,1,6.7,5,8.3l3.3,1.4c2.3,0.9,2.7,1.5,2.7,4.9c0,2.9-0.2,4.8-3.4,4.8
			c-2.4,0-3.3-1.6-3.3-3.3v-1.4l-4.6,0.8v0.9c0,4.4,3.4,7.7,7.9,7.7c6,0,8-4,8-9.5C28.8,32.1,28,29.5,24,28z"/>
	</g>
</g>
</svg>
